<svg xmlns="http://www.w3.org/2000/svg" xmlns:xlink="http://www.w3.org/1999/xlink" id="Layer_1" width="30" height="30" x="0" y="0" enable-background="new 0 0 30 30" version="1.1" viewBox="0 0 30 30" xml:space="preserve"><path fill="#EFEFEF" d="M20.364,20.364c-0.091,0.091-0.198,0.136-0.322,0.136h-3.667c-0.124,0-0.232-0.045-0.322-0.136	s-0.136-0.198-0.136-0.322V9.958c0-0.124,0.045-0.232,0.136-0.322C16.143,9.545,16.251,9.5,16.375,9.5h3.667	c0.124,0,0.232,0.045,0.322,0.136C20.455,9.727,20.5,9.834,20.5,9.958v10.083C20.5,20.166,20.455,20.273,20.364,20.364z M13.947,20.364c-0.091,0.091-0.198,0.136-0.322,0.136H9.958c-0.124,0-0.232-0.045-0.322-0.136C9.545,20.273,9.5,20.166,9.5,20.042	V9.958c0-0.124,0.045-0.232,0.136-0.322C9.727,9.545,9.834,9.5,9.958,9.5h3.667c0.124,0,0.232,0.045,0.322,0.136	c0.091,0.091,0.136,0.198,0.136,0.322v10.083C14.083,20.166,14.038,20.273,13.947,20.364z"/></svg>